<?xml version="1.0" encoding="utf-8"?>
<!-- Svg Vector Icons : http://www.onlinewebfonts.com/icon -->
<!DOCTYPE svg PUBLIC "-//W3C//DTD SVG 1.1//EN" "http://www.w3.org/Graphics/SVG/1.1/DTD/svg11.dtd">
<svg version="1.1" xmlns="http://www.w3.org/2000/svg" xmlns:xlink="http://www.w3.org/1999/xlink" x="0px" y="0px" viewBox="0 0 1000 1000" enable-background="new 0 0 1000 1000" xml:space="preserve">
<metadata> Svg Vector Icons : http://www.onlinewebfonts.com/icon </metadata>
<g><g transform="translate(0.000000,512.000000) scale(0.100000,-0.100000)"><path d="M2968.3,5014.3c-30.7-3.8-139.8-17.2-239.5-28.7c-333.3-38.3-982.7-195.4-944.4-228c7.7-7.7,88.1-42.2,178.1-76.6c415.7-160.9,934.8-465.5,1302.6-758.6c208.8-168.6,547.9-507.6,716.4-716.4c586.2-733.7,965.5-1639.8,1063.2-2551.6c26.8-239.5,26.8-825.6,0-1065.1c-97.7-911.8-477-1821.7-1065.1-2551.6c-166.7-208.8-505.7-547.9-714.5-714.5c-365.9-295-886.9-597.7-1302.6-760.5c-90-34.5-170.5-69-178.1-76.6c-17.2-15.3,323.7-118.8,542.1-162.8c268.2-57.5,526.8-86.2,833.3-99.6c1333.3-51.7,2643.6,459.8,3605.2,1406.1c649.4,639.8,1095.7,1419.5,1314.1,2296.8c113,450.2,137.9,664.7,137.9,1195.3c0,530.6-24.9,745.2-137.9,1197.3c-480.8,1929-2080.4,3365.7-4070.7,3660.7C3820.8,5006.6,3090.9,5031.5,2968.3,5014.3z"/></g></g>
</svg>